# xmcd CD database file
#
# Track frame offsets:
#	152
#	32483
#	54919
#	76968
#	101747
#	122188
#	148623
#	176886
#	205270
#	224600
#
# Disc length: 3383 seconds
#
# Revision: 0
# Processed by: cddbd v1.4PL0 Copyright (c) Steve Scherf et al.
# Submitted via: CDex 1.51
#
DISCID=910d350a
DTITLE=Berndt Egerbladh Trio - Sweet and Lovery
DYEAR=2002
DGENRE=Jazz
TTITLE0=Let It All Hang Out
TTITLE1=Night And Day
TTITLE2=Jumpy Juke
TTITLE3=Blues Eyes
TTITLE4=Theo Boy
TTITLE5=The First Snow
TTITLE6=Free Hands
TTITLE7=Sweet And Lovery
TTITLE8=One For The Bartender
TTITLE9=Night Piece
EXTD=YEAR: 2002
EXTT0=
EXTT1=
EXTT2=
EXTT3=
EXTT4=
EXTT5=
EXTT6=
EXTT7=
EXTT8=
EXTT9=
PLAYORDER=
